<?xml version="1.0" encoding="utf-8"?>
<svg version="1.1" xmlns:xlink="http://www.w3.org/1999/xlink" width="164px" height="115px" xmlns="http://www.w3.org/2000/svg">
  <g transform="matrix(1 0 0 1 -105 -114 )">
    <path d="M 105 114  L 269 114  L 269 229  L 105 229  L 105 114  " fill-rule="nonzero" fill="#cccccc" stroke="none" />
    <path d="M 113 122  L 261 122  L 261 221  L 113 221  L 113 122  " fill-rule="nonzero" fill="#ffffff" stroke="none" />
    <path d="M 198.905 148.5  C 194.075 148.5  190.28 144.705  190.28 139.875  C 190.28 135.045  194.075 131.25  198.905 131.25  C 203.735 131.25  207.53 135.045  207.53 139.875  C 207.53 144.705  203.735 148.5  198.905 148.5  " fill-rule="nonzero" fill="#cccccc" stroke="none" />
    <path d="M 116 218  L 116 166.85  L 151.5 143.6  L 201.2 178.871951219512  L 229.6 157.55  L 258 178.871951219512  L 258 218  L 116 218  " fill-rule="nonzero" fill="#169bd5" stroke="none" />
  </g>
</svg>