<svg t="1594299690686" class="icon" viewBox="0 0 1024 1024" version="1.1" xmlns="http://www.w3.org/2000/svg" p-id="4006" width="64" height="64"><path d="M512 0C230.4 0 0 230.4 0 512s230.4 512 512 512 512-230.4 512-512-230.4-512-512-512z m0 960c-249.6 0-448-198.4-448-448s198.4-448 448-448 448 198.4 448 448-198.4 448-448 448z" fill="#1296db" p-id="4007"></path><path d="M320 736h384v64H320zM544 582.4V224h-64v358.4L320 416l-44.8 44.8 204.8 211.2h64l204.8-211.2-44.8-44.8z" fill="#1296db" p-id="4008"></path></svg>