<?xml version="1.0" encoding="utf-8"?>
<svg version="1.1" xmlns:xlink="http://www.w3.org/1999/xlink" width="12px" height="12px" viewBox="15 192  12 12" xmlns="http://www.w3.org/2000/svg">
  <path d="M 21 192  C 24.36 192  27 194.64  27 198  C 27 201.36  24.36 204  21 204  C 17.64 204  15 201.36  15 198  C 15 194.64  17.64 192  21 192  Z " fill-rule="nonzero" fill="#f0f0f0" stroke="none" />
  <path d="M 21 192.5  C 24.08 192.5  26.5 194.92  26.5 198  C 26.5 201.08  24.08 203.5  21 203.5  C 17.92 203.5  15.5 201.08  15.5 198  C 15.5 194.92  17.92 192.5  21 192.5  Z " stroke-width="1" stroke="#797979" fill="none" />
  <path d="M 21 201  C 19.32 201  18 199.68  18 198  C 18 196.32  19.32 195  21 195  C 22.68 195  24 196.32  24 198  C 24 199.68  22.68 201  21 201  " fill-rule="nonzero" fill="#797979" stroke="none" />
</svg>