<?xml version="1.0" encoding="utf-8"?>
<svg version="1.1" xmlns:xlink="http://www.w3.org/1999/xlink" width="12px" height="12px" viewBox="15 255  12 12" xmlns="http://www.w3.org/2000/svg">
  <path d="M 21 255  C 24.36 255  27 257.64  27 261  C 27 264.36  24.36 267  21 267  C 17.64 267  15 264.36  15 261  C 15 257.64  17.64 255  21 255  Z " fill-rule="nonzero" fill="#f0f0f0" stroke="none" />
  <path d="M 21 255.5  C 24.08 255.5  26.5 257.92  26.5 261  C 26.5 264.08  24.08 266.5  21 266.5  C 17.92 266.5  15.5 264.08  15.5 261  C 15.5 257.92  17.92 255.5  21 255.5  Z " stroke-width="1" stroke="#797979" fill="none" />
  <path d="M 21 264  C 19.32 264  18 262.68  18 261  C 18 259.32  19.32 258  21 258  C 22.68 258  24 259.32  24 261  C 24 262.68  22.68 264  21 264  " fill-rule="nonzero" fill="#797979" stroke="none" />
</svg>