<?xml version="1.0" encoding="utf-8"?>
<svg version="1.1" xmlns:xlink="http://www.w3.org/1999/xlink" width="12px" height="12px" viewBox="15 382  12 12" xmlns="http://www.w3.org/2000/svg">
  <path d="M 21 382  C 24.36 382  27 384.64  27 388  C 27 391.36  24.36 394  21 394  C 17.64 394  15 391.36  15 388  C 15 384.64  17.64 382  21 382  Z " fill-rule="nonzero" fill="#f0f0f0" stroke="none" />
  <path d="M 21 382.5  C 24.08 382.5  26.5 384.92  26.5 388  C 26.5 391.08  24.08 393.5  21 393.5  C 17.92 393.5  15.5 391.08  15.5 388  C 15.5 384.92  17.92 382.5  21 382.5  Z " stroke-width="1" stroke="#797979" fill="none" />
  <path d="M 21 391  C 19.32 391  18 389.68  18 388  C 18 386.32  19.32 385  21 385  C 22.68 385  24 386.32  24 388  C 24 389.68  22.68 391  21 391  " fill-rule="nonzero" fill="#797979" stroke="none" />
</svg>