<?xml version="1.0" encoding="utf-8"?>
<svg version="1.1" xmlns:xlink="http://www.w3.org/1999/xlink" width="12px" height="12px" viewBox="15 475  12 12" xmlns="http://www.w3.org/2000/svg">
  <path d="M 21 475  C 24.36 475  27 477.64  27 481  C 27 484.36  24.36 487  21 487  C 17.64 487  15 484.36  15 481  C 15 477.64  17.64 475  21 475  Z " fill-rule="nonzero" fill="#f0f0f0" stroke="none" />
  <path d="M 21 475.5  C 24.08 475.5  26.5 477.92  26.5 481  C 26.5 484.08  24.08 486.5  21 486.5  C 17.92 486.5  15.5 484.08  15.5 481  C 15.5 477.92  17.92 475.5  21 475.5  Z " stroke-width="1" stroke="#797979" fill="none" />
  <path d="M 21 484  C 19.32 484  18 482.68  18 481  C 18 479.32  19.32 478  21 478  C 22.68 478  24 479.32  24 481  C 24 482.68  22.68 484  21 484  " fill-rule="nonzero" fill="#797979" stroke="none" />
</svg>