<?xml version="1.0" encoding="utf-8"?>
<svg version="1.1" xmlns:xlink="http://www.w3.org/1999/xlink" width="98px" height="92px" xmlns="http://www.w3.org/2000/svg">
  <g transform="matrix(1 0 0 1 -221 -290 )">
    <path d="M 221 290  L 319 290  L 319 382  L 221 382  L 221 290  " fill-rule="nonzero" fill="#cccccc" stroke="none" />
    <path d="M 227 296  L 313 296  L 313 376  L 227 376  L 227 296  " fill-rule="nonzero" fill="#ffffff" stroke="none" />
    <path d="M 278.86 317.6  C 274.996 317.6  271.96 314.564  271.96 310.7  C 271.96 306.836  274.996 303.8  278.86 303.8  C 282.724 303.8  285.76 306.836  285.76 310.7  C 285.76 314.564  282.724 317.6  278.86 317.6  " fill-rule="nonzero" fill="#cccccc" stroke="none" />
    <path d="M 230 374  L 230 332.75  L 250.25 314  L 278.6 331.755102040816  L 294.8 325.25  L 311 331.755102040816  L 311 374  L 230 374  " fill-rule="nonzero" fill="#169bd5" stroke="none" />
  </g>
</svg>