<svg t="1572338964996" class="icon" viewBox="0 0 1024 1024" version="1.1" xmlns="http://www.w3.org/2000/svg" p-id="4455" width="32" height="32"><path d="M512.0512 1024c-282.3168 0-512-229.632-512-512 0-282.3168 229.6832-512 512-512s512 229.6832 512 512c0 282.368-229.6832 512-512 512z m0-975.2576C256.6144 48.7424 48.7936 256.5632 48.7936 512s207.8208 463.2576 463.2576 463.2576c255.488 0 463.2576-207.8208 463.2576-463.2576s-207.7696-463.2576-463.2576-463.2576z" fill="#D9D9D9" p-id="4456"></path><path d="M512.00039319 512m-0.0094362 0a0.0094362 0.0094362 0 1 0 0.01887237 0 0.0094362 0.0094362 0 1 0-0.01887237 0Z" fill="#D9D9D9" p-id="4457"></path></svg>