<?xml version="1.0" encoding="utf-8"?>
<svg version="1.1" xmlns:xlink="http://www.w3.org/1999/xlink" width="12px" height="12px" viewBox="15 193  12 12" xmlns="http://www.w3.org/2000/svg">
  <path d="M 21 193  C 24.36 193  27 195.64  27 199  C 27 202.36  24.36 205  21 205  C 17.64 205  15 202.36  15 199  C 15 195.64  17.64 193  21 193  Z " fill-rule="nonzero" fill="#ffffff" stroke="none" />
  <path d="M 21 193.5  C 24.08 193.5  26.5 195.92  26.5 199  C 26.5 202.08  24.08 204.5  21 204.5  C 17.92 204.5  15.5 202.08  15.5 199  C 15.5 195.92  17.92 193.5  21 193.5  Z " stroke-width="1" stroke="#797979" fill="none" />
  <path d="M 21 202  C 19.32 202  18 200.68  18 199  C 18 197.32  19.32 196  21 196  C 22.68 196  24 197.32  24 199  C 24 200.68  22.68 202  21 202  " fill-rule="nonzero" fill="#797979" stroke="none" />
</svg>