<?xml version="1.0" encoding="utf-8"?>
<svg version="1.1" xmlns:xlink="http://www.w3.org/1999/xlink" width="12px" height="12px" viewBox="15 375  12 12" xmlns="http://www.w3.org/2000/svg">
  <path d="M 21 375  C 24.36 375  27 377.64  27 381  C 27 384.36  24.36 387  21 387  C 17.64 387  15 384.36  15 381  C 15 377.64  17.64 375  21 375  Z " fill-rule="nonzero" fill="#f0f0f0" stroke="none" />
  <path d="M 21 375.5  C 24.08 375.5  26.5 377.92  26.5 381  C 26.5 384.08  24.08 386.5  21 386.5  C 17.92 386.5  15.5 384.08  15.5 381  C 15.5 377.92  17.92 375.5  21 375.5  Z " stroke-width="1" stroke="#797979" fill="none" />
  <path d="M 21 384  C 19.32 384  18 382.68  18 381  C 18 379.32  19.32 378  21 378  C 22.68 378  24 379.32  24 381  C 24 382.68  22.68 384  21 384  " fill-rule="nonzero" fill="#797979" stroke="none" />
</svg>