<?xml version="1.0" encoding="utf-8"?>
<svg version="1.1" xmlns:xlink="http://www.w3.org/1999/xlink" width="12px" height="12px" viewBox="15 247  12 12" xmlns="http://www.w3.org/2000/svg">
  <path d="M 21 247  C 24.36 247  27 249.64  27 253  C 27 256.36  24.36 259  21 259  C 17.64 259  15 256.36  15 253  C 15 249.64  17.64 247  21 247  Z " fill-rule="nonzero" fill="#f0f0f0" stroke="none" />
  <path d="M 21 247.5  C 24.08 247.5  26.5 249.92  26.5 253  C 26.5 256.08  24.08 258.5  21 258.5  C 17.92 258.5  15.5 256.08  15.5 253  C 15.5 249.92  17.92 247.5  21 247.5  Z " stroke-width="1" stroke="#797979" fill="none" />
  <path d="M 21 256  C 19.32 256  18 254.68  18 253  C 18 251.32  19.32 250  21 250  C 22.68 250  24 251.32  24 253  C 24 254.68  22.68 256  21 256  " fill-rule="nonzero" fill="#797979" stroke="none" />
</svg>