<?xml version="1.0" encoding="utf-8"?>
<svg version="1.1" xmlns:xlink="http://www.w3.org/1999/xlink" width="12px" height="12px" viewBox="15 320  12 12" xmlns="http://www.w3.org/2000/svg">
  <path d="M 21 320  C 24.36 320  27 322.64  27 326  C 27 329.36  24.36 332  21 332  C 17.64 332  15 329.36  15 326  C 15 322.64  17.64 320  21 320  Z " fill-rule="nonzero" fill="#f0f0f0" stroke="none" />
  <path d="M 21 320.5  C 24.08 320.5  26.5 322.92  26.5 326  C 26.5 329.08  24.08 331.5  21 331.5  C 17.92 331.5  15.5 329.08  15.5 326  C 15.5 322.92  17.92 320.5  21 320.5  Z " stroke-width="1" stroke="#797979" fill="none" />
  <path d="M 21 329  C 19.32 329  18 327.68  18 326  C 18 324.32  19.32 323  21 323  C 22.68 323  24 324.32  24 326  C 24 327.68  22.68 329  21 329  " fill-rule="nonzero" fill="#797979" stroke="none" />
</svg>