<?xml version="1.0" encoding="utf-8"?>
<svg version="1.1" xmlns:xlink="http://www.w3.org/1999/xlink" width="12px" height="12px" viewBox="15 220  12 12" xmlns="http://www.w3.org/2000/svg">
  <path d="M 21 220  C 24.36 220  27 222.64  27 226  C 27 229.36  24.36 232  21 232  C 17.64 232  15 229.36  15 226  C 15 222.64  17.64 220  21 220  Z " fill-rule="nonzero" fill="#f0f0f0" stroke="none" />
  <path d="M 21 220.5  C 24.08 220.5  26.5 222.92  26.5 226  C 26.5 229.08  24.08 231.5  21 231.5  C 17.92 231.5  15.5 229.08  15.5 226  C 15.5 222.92  17.92 220.5  21 220.5  Z " stroke-width="1" stroke="#797979" fill="none" />
  <path d="M 21 229  C 19.32 229  18 227.68  18 226  C 18 224.32  19.32 223  21 223  C 22.68 223  24 224.32  24 226  C 24 227.68  22.68 229  21 229  " fill-rule="nonzero" fill="#797979" stroke="none" />
</svg>