<?xml version="1.0" encoding="utf-8"?>
<svg version="1.1" xmlns:xlink="http://www.w3.org/1999/xlink" width="12px" height="12px" viewBox="15 165  12 12" xmlns="http://www.w3.org/2000/svg">
  <path d="M 21 165  C 24.36 165  27 167.64  27 171  C 27 174.36  24.36 177  21 177  C 17.64 177  15 174.36  15 171  C 15 167.64  17.64 165  21 165  Z " fill-rule="nonzero" fill="#f0f0f0" stroke="none" />
  <path d="M 21 165.5  C 24.08 165.5  26.5 167.92  26.5 171  C 26.5 174.08  24.08 176.5  21 176.5  C 17.92 176.5  15.5 174.08  15.5 171  C 15.5 167.92  17.92 165.5  21 165.5  Z " stroke-width="1" stroke="#797979" fill="none" />
  <path d="M 21 174  C 19.32 174  18 172.68  18 171  C 18 169.32  19.32 168  21 168  C 22.68 168  24 169.32  24 171  C 24 172.68  22.68 174  21 174  " fill-rule="nonzero" fill="#797979" stroke="none" />
</svg>