<?xml version="1.0" encoding="utf-8"?>
<svg version="1.1" xmlns:xlink="http://www.w3.org/1999/xlink" width="29px" height="29px" xmlns="http://www.w3.org/2000/svg">
  <g transform="matrix(1 0 0 1 -54 -6 )">
    <path d="M 54 6  L 83 6  L 83 35  L 54 35  L 54 6  " fill-rule="nonzero" fill="#cccccc" stroke="none" />
    <path d="M 56 8  L 81 8  L 81 33  L 56 33  L 56 8  " fill-rule="nonzero" fill="#ffffff" stroke="none" />
    <path d="M 71.255 14.7  C 70.037 14.7  69.08 13.743  69.08 12.525  C 69.08 11.307  70.037 10.35  71.255 10.35  C 72.473 10.35  73.43 11.307  73.43 12.525  C 73.43 13.743  72.473 14.7  71.255 14.7  " fill-rule="nonzero" fill="#cccccc" stroke="none" />
    <path d="M 57 33  L 57 19.8  L 63 13.8  L 71.4 18.6  L 76.2 17.4  L 81 18.6  L 81 33  L 57 33  " fill-rule="nonzero" fill="#169bd5" stroke="none" />
  </g>
</svg>