<svg t="1572250155275" class="icon" viewBox="0 0 1024 1024" version="1.1" xmlns="http://www.w3.org/2000/svg" p-id="4468" width="20" height="20"><path d="M527.080926 954.167476a32.539762 32.539762 0 0 1-30.419193 0L102.382184 744.304289l148.001077-78.168553 215.713032 115.168822c28.591117 15.355843 62.885833 15.355843 91.623196 0l215.42054-115.095699 148.220446 79.411645-394.279549 208.546972zM246.873354 433.385031L466.096293 550.16256c28.66424 15.209597 62.885833 15.209597 91.550073 0l219.00357-116.55816 144.49117 78.972907-394.133303 210.448171a32.027901 32.027901 0 0 1-30.272947 0L102.52843 510.456738l144.418047-77.071707h-0.073123z m704.906315 252.493932l-108.222132-57.182234 108.295255-57.840342A66.980725 66.980725 0 0 0 987.17123 511.407338a66.907601 66.907601 0 0 0-35.318438-59.375927l-104.931594-56.085388 104.931594-55.866019A66.907601 66.907601 0 0 0 987.17123 280.777201a66.980725 66.980725 0 0 0-35.318438-59.22968L557.646366 11.464965a98.935502 98.935502 0 0 0-91.550073 0L71.816744 221.474398A67.053848 67.053848 0 0 0 36.571429 280.777201c0 25.008087 13.527766 47.749359 35.245315 59.375926l105.004717 55.792896-105.004717 56.158512A66.980725 66.980725 0 0 0 36.571429 511.407338c0 24.934964 13.527766 47.749359 35.245315 59.375926l108.368378 57.767218-108.222132 57.255358a66.615109 66.615109 0 0 0-35.391561 59.156557c0 24.861841 13.527766 47.603113 35.391561 59.156557l394.206426 208.400725c28.591117 15.209597 62.81271 15.209597 91.403827 0l394.133303-208.400725a66.615109 66.615109 0 0 0 35.464684-59.156557 66.615109 66.615109 0 0 0-35.391561-59.156557z" p-id="4469" fill="#1296db"></path></svg>