<?xml version="1.0" encoding="utf-8"?>
<svg version="1.1" xmlns:xlink="http://www.w3.org/1999/xlink" width="24px" height="24px" xmlns="http://www.w3.org/2000/svg">
  <g transform="matrix(1 0 0 1 -15 -147 )">
    <path d="M 27 147  C 33.72 147  39 152.28  39 159  C 39 165.72  33.72 171  27 171  C 20.28 171  15 165.72  15 159  C 15 152.28  20.28 147  27 147  Z " fill-rule="nonzero" fill="#ffffff" stroke="none" fill-opacity="0" />
    <path d="M 27 147.5  C 33.44 147.5  38.5 152.56  38.5 159  C 38.5 165.44  33.44 170.5  27 170.5  C 20.56 170.5  15.5 165.44  15.5 159  C 15.5 152.56  20.56 147.5  27 147.5  Z " stroke-width="1" stroke="#c8c7c7" fill="none" />
  </g>
</svg>