<svg t="1572341189992" class="icon" viewBox="0 0 1024 1024" version="1.1" xmlns="http://www.w3.org/2000/svg" p-id="6021" width="32" height="32"><path d="M252.842667 624.725333c-17.237333 0-30.72-14.464-30.72-32.853333 0-18.432 13.482667-32.853333 30.72-32.853333H326.826667c17.237333 0 30.72 14.421333 30.72 32.853333 0 18.389333-13.482667 32.853333-30.72 32.853333H252.842667z m222.122666 0c-17.237333 0-30.72-14.464-30.72-32.853333 0-18.432 13.482667-32.853333 30.72-32.853333h74.026667c17.237333 0 30.72 14.421333 30.72 32.853333 0 18.389333-13.482667 32.853333-30.72 32.853333h-74.026667z m222.122667 0c-17.237333 0-30.72-14.464-30.72-32.853333 0-18.432 13.482667-32.853333 30.72-32.853333h74.069333c17.194667 0 30.72 14.421333 30.72 32.853333 0 18.389333-13.525333 32.853333-30.72 32.853333h-74.069333zM252.842667 784.426667c-17.237333 0-30.72-14.421333-30.72-32.853334s13.482667-32.853333 30.72-32.853333H326.826667c17.237333 0 30.72 14.421333 30.72 32.853333s-13.482667 32.853333-30.72 32.853334H252.842667z m222.122666 0c-17.237333 0-30.72-14.421333-30.72-32.853334s13.482667-32.853333 30.72-32.853333h74.026667c17.237333 0 30.72 14.421333 30.72 32.853333s-13.482667 32.853333-30.72 32.853334h-74.026667z m222.122667 0c-17.237333 0-30.72-14.421333-30.72-32.853334s13.482667-32.853333 30.72-32.853333h74.069333c17.194667 0 30.72 14.421333 30.72 32.853333s-13.525333 32.853333-30.72 32.853334h-74.069333zM962.56 319.402667V232.533333c0-47.914667-36.010667-86.912-80.341333-86.912h-154.368v47.018667c0 18.389333-13.482667 32.853333-30.72 32.853333-17.237333 0-30.72-14.464-30.72-32.853333V145.578667H357.589333v47.018666c0 18.389333-13.482667 32.853333-30.72 32.853334-17.194667 0-30.72-14.464-30.72-32.853334V145.578667H141.781333c-44.288 0-80.341333 38.997333-80.341333 86.912v86.912h901.12zM61.44 871.338667c0 47.957333 36.053333 86.954667 80.341333 86.954666h740.394667c44.330667 0 80.341333-38.997333 80.341333-86.954666V385.152H61.44v486.186667zM141.781333 1024C63.573333 1024 0 955.52 0 871.338667V232.533333c0-84.138667 63.573333-152.661333 141.781333-152.661333H296.106667v-46.933333c0-18.474667 13.525333-32.896 30.72-32.896 17.237333 0 30.72 14.421333 30.72 32.853333v46.976h308.778666v-46.933333c0-18.474667 13.482667-32.896 30.72-32.896 17.237333 0 30.72 14.421333 30.72 32.853333v46.976h154.368C960.426667 79.829333 1024 148.352 1024 232.533333v638.848C1024 955.52 960.384 1024 882.176 1024H141.781333z" fill="#D9D9D9" fill-opacity=".65" p-id="6022"></path></svg>