<svg t="1594177161973" class="icon" viewBox="0 0 1024 1024" version="1.1" xmlns="http://www.w3.org/2000/svg" p-id="3727" width="48" height="48"><path d="M667.768693 333.576331c-42.699498-42.002626-98.738815-62.819744-159.010527-62.204737-123.626645 1.038656-223.349881 106.730836-222.314295 230.327806 0.503467 59.878762 24.293289 124.546597 66.971297 166.549224 42.224684 41.554418 97.957009 81.567737 157.108201 81.567737l1.902326 0c123.596969 0 223.320205-118.581746 222.284619-242.148016C734.236524 447.814142 710.473307 375.578957 667.768693 333.576331L667.768693 333.576331zM511.976464 663.652955c-45.196365 0.367367-87.255273-12.438287-119.278617-43.935652-32.028461-31.493272-49.848315-64.949244-50.211589-109.838617-0.786922-92.719728 74.02597-152.316058 166.744675-152.316058l1.402953 0c44.38386 0 86.190011 0.953721 117.880781 32.140001 32.028461 31.493272 49.848315 57.411571 50.211589 102.33062C679.483502 584.691579 604.670609 662.899802 511.976464 663.652955L511.976464 663.652955zM511.976464 663.652955" p-id="3728" fill="#d81e06"></path><path d="M398.4959 492.169349l56.043411-0.474814c-0.252757-30.90794 24.682146-56.265468 55.590086-56.518225l-0.478907-56.039317C447.869401 379.671159 397.99141 430.357562 398.4959 492.169349L398.4959 492.169349zM398.4959 492.169349" p-id="3729" fill="#d81e06"></path><path d="M507.829004 159.293983c229.933833-0.731664 428.459329 138.389884 450.846198 311.078944l-55.564503 13.643742C884.423081 339.993484 713.388706 245.453295 512.763386 245.453295l-4.454452 0c-202.810079 0-374.207727 96.614431-390.181537 238.113119l-55.676044-14.904455C81.841983 296.704562 273.329179 161.225985 507.829004 159.293983L507.829004 159.293983zM507.829004 159.293983" p-id="3730" fill="#d81e06"></path><path d="M513.378393 861.925694l-4.847401 0c-228.420363 0-423.828868-150.327774-446.049962-321.840032l55.56041-15.801894c18.773576 145.085376 191.68981 251.901147 394.862139 251.477498 202.810079-1.680269 374.177028-115.973338 390.121162-257.476119l55.676044 22.417569C939.341878 712.687742 747.879242 861.925694 513.378393 861.925694L513.378393 861.925694zM513.378393 861.925694" p-id="3731" fill="#d81e06"></path></svg>