<?xml version="1.0" encoding="utf-8"?>
<svg version="1.1" xmlns:xlink="http://www.w3.org/1999/xlink" width="86px" height="78px" xmlns="http://www.w3.org/2000/svg">
  <g transform="matrix(1 0 0 1 -278 -182 )">
    <path d="M 278 182  L 364 182  L 364 260  L 278 260  L 278 182  " fill-rule="nonzero" fill="#cccccc" stroke="none" />
    <path d="M 283 187  L 359 187  L 359 255  L 283 255  L 283 187  " fill-rule="nonzero" fill="#ffffff" stroke="none" />
    <path d="M 328.57 205.4  C 325.294 205.4  322.72 202.826  322.72 199.55  C 322.72 196.274  325.294 193.7  328.57 193.7  C 331.846 193.7  334.42 196.274  334.42 199.55  C 334.42 202.826  331.846 205.4  328.57 205.4  " fill-rule="nonzero" fill="#cccccc" stroke="none" />
    <path d="M 285 253  L 285 217.8  L 303 201.8  L 328.2 218.172093023256  L 342.6 211.4  L 357 218.172093023256  L 357 253  L 285 253  " fill-rule="nonzero" fill="#169bd5" stroke="none" />
  </g>
</svg>