<?xml version="1.0" encoding="utf-8"?>
<svg version="1.1" xmlns:xlink="http://www.w3.org/1999/xlink" width="92px" height="81px" xmlns="http://www.w3.org/2000/svg">
  <g transform="matrix(1 0 0 1 -15 -191 )">
    <path d="M 15 191  L 107 191  L 107 272  L 15 272  L 15 191  " fill-rule="nonzero" fill="#cccccc" stroke="none" />
    <path d="M 21 197  L 101 197  L 101 266  L 21 266  L 21 197  " fill-rule="nonzero" fill="#ffffff" stroke="none" />
    <path d="M 68.915 215.3  C 65.513 215.3  62.84 212.627  62.84 209.225  C 62.84 205.823  65.513 203.15  68.915 203.15  C 72.317 203.15  74.99 205.823  74.99 209.225  C 74.99 212.627  72.317 215.3  68.915 215.3  " fill-rule="nonzero" fill="#cccccc" stroke="none" />
    <path d="M 23 264  L 23 228.25  L 42 212  L 68.6 229.663043478261  L 83.8 221.75  L 99 229.663043478261  L 99 264  L 23 264  " fill-rule="nonzero" fill="#169bd5" stroke="none" />
  </g>
</svg>