<?xml version="1.0" encoding="utf-8"?>
<svg version="1.1" xmlns:xlink="http://www.w3.org/1999/xlink" width="60px" height="60px" xmlns="http://www.w3.org/2000/svg">
  <g transform="matrix(1 0 0 1 -29 -94 )">
    <path d="M 29 94  L 89 94  L 89 154  L 29 154  L 29 94  " fill-rule="nonzero" fill="#cccccc" stroke="none" />
    <path d="M 33 98  L 85 98  L 85 150  L 33 150  L 33 98  " fill-rule="nonzero" fill="#ffffff" stroke="none" />
    <path d="M 64.7 112  C 62.18 112  60.2 110.02  60.2 107.5  C 60.2 104.98  62.18 103  64.7 103  C 67.22 103  69.2 104.98  69.2 107.5  C 69.2 110.02  67.22 112  64.7 112  " fill-rule="nonzero" fill="#cccccc" stroke="none" />
    <path d="M 35 149  L 35 122.05  L 47.25 109.8  L 64.4 119.6  L 74.2 117.15  L 84 119.6  L 84 149  L 35 149  " fill-rule="nonzero" fill="#169bd5" stroke="none" />
  </g>
</svg>