<?xml version="1.0" encoding="utf-8"?>
<svg version="1.1" xmlns:xlink="http://www.w3.org/1999/xlink" width="100px" height="100px" xmlns="http://www.w3.org/2000/svg">
  <defs>
    <mask fill="white" id="clip56">
      <path d="M 23 411  C 18.56 411  15 407.44  15 403  L 15 319  C 15 314.56  18.56 311  23 311  L 107 311  C 111.44 311  115 314.56  115 319  L 115 403  C 115 407.44  111.44 411  107 411  " fill-rule="evenodd" />
    </mask>
  </defs>
  <g transform="matrix(1 0 0 1 -15 -311 )">
    <path d="M 15 311  L 115 311  L 115 411  L 15 411  L 15 311  " fill-rule="nonzero" fill="#cccccc" stroke="none" mask="url(#clip56)" />
    <path d="M 22 318  L 108 318  L 108 404  L 22 404  L 22 318  " fill-rule="nonzero" fill="#ffffff" stroke="none" mask="url(#clip56)" />
    <path d="M 74.5 341  C 70.3 341  67 337.7  67 333.5  C 67 329.3  70.3 326  74.5 326  C 78.7 326  82 329.3  82 333.5  C 82 337.7  78.7 341  74.5 341  " fill-rule="nonzero" fill="#cccccc" stroke="none" mask="url(#clip56)" />
    <path d="M 25 402  L 25 357.45  L 45.25 337.2  L 73.6 353.4  L 89.8 349.35  L 106 353.4  L 106 402  L 25 402  " fill-rule="nonzero" fill="#169bd5" stroke="none" mask="url(#clip56)" />
  </g>
</svg>