<svg t="1594127754577" class="icon" viewBox="0 0 1024 1024" version="1.1" xmlns="http://www.w3.org/2000/svg" p-id="863" width="24" height="24"><path d="M334.1 906.1c-62.6-124.4-29.6-196 19.8-261.3 31.5-44.4 53.8-94 65.9-146.2 12-52.2 42.8 49.7 26.4 130.7 72.5-77.8 85.7-202.2 75.8-248.9C686.9 489.3 759.4 728.8 663.8 903 1171.4 629.2 789 221.7 723 178.1c23.1 46.6 26.4 124.4-19.7 161.7C627.5 66.1 439.6 13.2 439.6 13.2c23.1 140-79.1 292.4-178 407.7-3.3-56-6.6-93.3-39.4-149.3C215.4 374.1 132.8 455 110 557.7c-29.7 139.9 23 239.5 224.1 348.4z m0 0" fill="#d81e06" p-id="864"></path><path d="M977.3 1013.2H48.7c-19.7 0-35.7-16-35.7-35.7 0-19.7 16-35.7 35.7-35.7h928.6c19.7 0 35.7 16 35.7 35.7 0 19.7-16 35.7-35.7 35.7z" fill="#d81e06" p-id="865"></path></svg>