<?xml version="1.0" encoding="utf-8"?>
<svg version="1.1" xmlns:xlink="http://www.w3.org/1999/xlink" width="375px" height="122px" xmlns="http://www.w3.org/2000/svg">
  <g transform="matrix(1 0 0 1 0 -63 )">
    <path d="M 0 63  L 375 63  L 375 185  L 0 185  L 0 63  " fill-rule="nonzero" fill="#cccccc" stroke="none" />
    <path d="M 9 72  L 366 72  L 366 176  L 9 176  L 9 72  " fill-rule="nonzero" fill="#ffffff" stroke="none" />
    <path d="M 204.15 99.6  C 199.026 99.6  195 95.574  195 90.45  C 195 85.326  199.026 81.3  204.15 81.3  C 209.274 81.3  213.3 85.326  213.3 90.45  C 213.3 95.574  209.274 99.6  204.15 99.6  " fill-rule="nonzero" fill="#cccccc" stroke="none" />
    <path d="M 12 173  L 12 119.1  L 99.75 94.6  L 222.6 153.8704  L 292.8 109.3  L 363 153.8704  L 363 173  L 12 173  " fill-rule="nonzero" fill="#169bd5" stroke="none" />
  </g>
</svg>